# xmcd
# 
# Track frame offsets:
#     150
#     20062
#     39062
#     57262
#     76375
#     96087
#     112737
#     133462
#     158725
#     176200
#     194275
# 
# Disc length: 2851
# 
# Revision: 2
# Processed by: cddbd v1.5.2PL0 Copyright (c) Steve Scherf et al.
# Submitted via: BonkEnc v1.0.8
# 
DISCID=8b0b210b
DTITLE=杜德偉 - 讓自己快樂
DYEAR=1992
DGENRE=香港流行音樂
TTITLE0=給我吧!
TTITLE1=深愛的你
TTITLE2=讓自已快樂
TTITLE3=准我
TTITLE4=因你著迷
TTITLE5=安全地愛
TTITLE6=信自己
TTITLE7=Because I Love You Remix
TTITLE8=每一分鐘
TTITLE9=讓自已快樂(REMIX)
TTITLE10=給我吧！REMIX
EXTD=YEAR: 1992
EXTT0=
EXTT1=
EXTT2=
EXTT3=
EXTT4=
EXTT5=
EXTT6=
EXTT7=
EXTT8=
EXTT9=
EXTT10=
PLAYORDER=
